# xmcd
#
# Track frame offsets: 
#        150
#        9782
#        17044
#        30367
#        47024
#        58757
#        72968
#        89167
#        99590
#        123510
#        139372
#        156844
#        167236
#        182384
#
# Disc length: 2643 seconds
#
# Revision: 1
# Processed by: cddbd v1.5.2PL0 Copyright (c) Steve Scherf et al.
# Submitted via: ExactAudioCopy v0.95b1
#
DISCID=b60a510e
DTITLE=Various Artist - Kukerpillid - Kaunimad laulud CD2
DYEAR=2012
DGENRE=Country
TTITLE0=Kassiahastus - Aissa
TTITLE1=Nõmme Pillikoor - Hambavalu
TTITLE2=Juhan Uppin ja Tiit Kõrvits and Kukerpillid - Sauga pulmapolka
TTITLE3=Katrin Mandel and Kukerpillid - Mu arm on nagu ruske roos
TTITLE4=Turkka Mali and Kukerpillid - Kuin lapsena ennen
TTITLE5=Zorg - Jahitrofeed
TTITLE6=David O'Brock and Kukerpillid - Lovesong
TTITLE7=Helen Lokuta and Kvartett - Vihmaussi elu
TTITLE8=Art of Trio - Mees lõhkus puid...
TTITLE9=Ivo Linna and Kukerpillid and Nõmme Pillikoori naised - Karepa val
TTITLE9=ss
TTITLE10=Metsatöll - Suured koerad, väiksed koerad
TTITLE11=Shantykoor De Hiskefiskers - Rotterdam
TTITLE12=Marko Matvere - Külad and kõrtsid
TTITLE13=Tallinna Päiksesejänku lasteaia mudilased - Igaühel oma pill 
TTITLE13=Pillilugu
EXTD=
EXTT0=
EXTT1=
EXTT2=
EXTT3=
EXTT4=
EXTT5=
EXTT6=
EXTT7=
EXTT8=
EXTT9=
EXTT10=
EXTT11=
EXTT12=
EXTT13=
PLAYORDER=
